<mxfile host="app.diagrams.net" modified="2023-07-30T11:38:56.604Z" agent="Mozilla/5.0 (Windows NT 10.0; Win64; x64) AppleWebKit/537.36 (KHTML, like Gecko) Chrome/115.0.0.0 Safari/537.36" etag="xgatswgrt3mT_tDcXWN1" version="21.6.6" type="github">
  <diagram name="Page-1" id="0783ab3e-0a74-02c8-0abd-f7b4e66b4bec">
    <mxGraphModel dx="1259" dy="666" grid="1" gridSize="10" guides="1" tooltips="1" connect="1" arrows="1" fold="1" page="1" pageScale="1" pageWidth="850" pageHeight="1100" background="none" math="0" shadow="0">
      <root>
        <mxCell id="0" />
        <mxCell id="1" parent="0" />
        <mxCell id="J9yXBVlpHkPEB4QJOyiD-1" value="" style="edgeStyle=orthogonalEdgeStyle;rounded=0;orthogonalLoop=1;jettySize=auto;html=1;" parent="1" source="J9yXBVlpHkPEB4QJOyiD-2" target="J9yXBVlpHkPEB4QJOyiD-3" edge="1">
          <mxGeometry relative="1" as="geometry" />
        </mxCell>
        <mxCell id="J9yXBVlpHkPEB4QJOyiD-2" value="" style="ellipse;fillColor=strokeColor;html=1;" parent="1" vertex="1">
          <mxGeometry x="405" y="20" width="30" height="30" as="geometry" />
        </mxCell>
        <mxCell id="J9yXBVlpHkPEB4QJOyiD-3" value="Invoice No." style="rounded=1;whiteSpace=wrap;html=1;arcSize=40;fontColor=#000000;fillColor=#ffffc0;strokeColor=#ff0000;" parent="1" vertex="1">
          <mxGeometry x="360" y="80" width="120" height="40" as="geometry" />
        </mxCell>
        <mxCell id="J9yXBVlpHkPEB4QJOyiD-4" value="" style="edgeStyle=orthogonalEdgeStyle;html=1;verticalAlign=bottom;endArrow=open;endSize=8;strokeColor=#ff0000;rounded=0;entryX=0.5;entryY=0;entryDx=0;entryDy=0;" parent="1" source="J9yXBVlpHkPEB4QJOyiD-3" target="J9yXBVlpHkPEB4QJOyiD-10" edge="1">
          <mxGeometry relative="1" as="geometry">
            <mxPoint x="425" y="180" as="targetPoint" />
          </mxGeometry>
        </mxCell>
        <mxCell id="J9yXBVlpHkPEB4QJOyiD-18" value="" style="edgeStyle=orthogonalEdgeStyle;rounded=0;orthogonalLoop=1;jettySize=auto;html=1;entryX=0.5;entryY=0;entryDx=0;entryDy=0;" parent="1" source="J9yXBVlpHkPEB4QJOyiD-5" target="J9yXBVlpHkPEB4QJOyiD-21" edge="1">
          <mxGeometry relative="1" as="geometry">
            <mxPoint x="420" y="379" as="targetPoint" />
          </mxGeometry>
        </mxCell>
        <mxCell id="J9yXBVlpHkPEB4QJOyiD-5" value="Enter Customer Name" style="rounded=1;whiteSpace=wrap;html=1;arcSize=40;fontColor=#000000;fillColor=#ffffc0;strokeColor=#ff0000;" parent="1" vertex="1">
          <mxGeometry x="360" y="290" width="120" height="40" as="geometry" />
        </mxCell>
        <mxCell id="J9yXBVlpHkPEB4QJOyiD-6" value="appears automatically" style="shape=note2;boundedLbl=1;whiteSpace=wrap;html=1;size=25;verticalAlign=top;align=center;" parent="1" vertex="1">
          <mxGeometry x="550" y="70" width="120" height="60" as="geometry" />
        </mxCell>
        <mxCell id="J9yXBVlpHkPEB4QJOyiD-7" value="" style="endArrow=none;dashed=1;html=1;dashPattern=1 3;strokeWidth=2;rounded=0;entryX=0;entryY=0.5;entryDx=0;entryDy=0;entryPerimeter=0;exitX=1;exitY=0.5;exitDx=0;exitDy=0;" parent="1" source="J9yXBVlpHkPEB4QJOyiD-3" target="J9yXBVlpHkPEB4QJOyiD-6" edge="1">
          <mxGeometry width="50" height="50" relative="1" as="geometry">
            <mxPoint x="500" y="250" as="sourcePoint" />
            <mxPoint x="550" y="200" as="targetPoint" />
          </mxGeometry>
        </mxCell>
        <mxCell id="J9yXBVlpHkPEB4QJOyiD-8" value="" style="edgeStyle=orthogonalEdgeStyle;rounded=0;orthogonalLoop=1;jettySize=auto;html=1;entryX=0;entryY=0.5;entryDx=0;entryDy=0;" parent="1" source="J9yXBVlpHkPEB4QJOyiD-10" target="J9yXBVlpHkPEB4QJOyiD-13" edge="1">
          <mxGeometry relative="1" as="geometry">
            <mxPoint x="260" y="250" as="targetPoint" />
          </mxGeometry>
        </mxCell>
        <mxCell id="J9yXBVlpHkPEB4QJOyiD-9" value="yse" style="edgeLabel;html=1;align=center;verticalAlign=middle;resizable=0;points=[];" parent="J9yXBVlpHkPEB4QJOyiD-8" vertex="1" connectable="0">
          <mxGeometry x="-0.7629" y="1" relative="1" as="geometry">
            <mxPoint as="offset" />
          </mxGeometry>
        </mxCell>
        <mxCell id="J9yXBVlpHkPEB4QJOyiD-10" value="Modify" style="rhombus;whiteSpace=wrap;html=1;fontColor=#000000;fillColor=#ffffc0;strokeColor=#ff0000;" parent="1" vertex="1">
          <mxGeometry x="380" y="180" width="80" height="40" as="geometry" />
        </mxCell>
        <mxCell id="J9yXBVlpHkPEB4QJOyiD-11" value="" style="edgeStyle=orthogonalEdgeStyle;html=1;align=left;verticalAlign=bottom;endArrow=open;endSize=8;strokeColor=#ff0000;rounded=0;entryX=0.5;entryY=0;entryDx=0;entryDy=0;exitX=0.5;exitY=1;exitDx=0;exitDy=0;" parent="1" source="J9yXBVlpHkPEB4QJOyiD-10" target="J9yXBVlpHkPEB4QJOyiD-5" edge="1">
          <mxGeometry x="-1" relative="1" as="geometry">
            <mxPoint x="100" y="220" as="targetPoint" />
            <mxPoint x="380" y="230" as="sourcePoint" />
          </mxGeometry>
        </mxCell>
        <mxCell id="J9yXBVlpHkPEB4QJOyiD-12" value="no" style="edgeLabel;html=1;align=center;verticalAlign=middle;resizable=0;points=[];" parent="J9yXBVlpHkPEB4QJOyiD-11" vertex="1" connectable="0">
          <mxGeometry x="-0.4981" relative="1" as="geometry">
            <mxPoint as="offset" />
          </mxGeometry>
        </mxCell>
        <mxCell id="J9yXBVlpHkPEB4QJOyiD-13" value="Modify Invoice No." style="rounded=1;whiteSpace=wrap;html=1;arcSize=40;fontColor=#000000;fillColor=#ffffc0;strokeColor=#ff0000;" parent="1" vertex="1">
          <mxGeometry x="180" y="290" width="120" height="40" as="geometry" />
        </mxCell>
        <mxCell id="J9yXBVlpHkPEB4QJOyiD-14" value="" style="edgeStyle=orthogonalEdgeStyle;html=1;verticalAlign=bottom;endArrow=open;endSize=8;strokeColor=#ff0000;rounded=0;entryX=0;entryY=0.5;entryDx=0;entryDy=0;" parent="1" source="J9yXBVlpHkPEB4QJOyiD-13" target="J9yXBVlpHkPEB4QJOyiD-5" edge="1">
          <mxGeometry relative="1" as="geometry">
            <mxPoint x="160" y="370" as="targetPoint" />
          </mxGeometry>
        </mxCell>
        <mxCell id="J9yXBVlpHkPEB4QJOyiD-15" value="appears automatically&lt;br&gt;from customer table" style="shape=note2;boundedLbl=1;whiteSpace=wrap;html=1;size=25;verticalAlign=top;align=center;" parent="1" vertex="1">
          <mxGeometry x="550" y="275" width="120" height="70" as="geometry" />
        </mxCell>
        <mxCell id="J9yXBVlpHkPEB4QJOyiD-16" value="" style="endArrow=none;dashed=1;html=1;dashPattern=1 3;strokeWidth=2;rounded=0;entryX=1;entryY=0.5;entryDx=0;entryDy=0;exitX=0;exitY=0.5;exitDx=0;exitDy=0;exitPerimeter=0;" parent="1" source="J9yXBVlpHkPEB4QJOyiD-15" target="J9yXBVlpHkPEB4QJOyiD-5" edge="1">
          <mxGeometry width="50" height="50" relative="1" as="geometry">
            <mxPoint x="400" y="340" as="sourcePoint" />
            <mxPoint x="450" y="290" as="targetPoint" />
          </mxGeometry>
        </mxCell>
        <mxCell id="J9yXBVlpHkPEB4QJOyiD-24" value="" style="edgeStyle=orthogonalEdgeStyle;rounded=0;orthogonalLoop=1;jettySize=auto;html=1;" parent="1" source="J9yXBVlpHkPEB4QJOyiD-21" target="J9yXBVlpHkPEB4QJOyiD-23" edge="1">
          <mxGeometry relative="1" as="geometry" />
        </mxCell>
        <mxCell id="J9yXBVlpHkPEB4QJOyiD-21" value="Date Of Invoice" style="rounded=1;whiteSpace=wrap;html=1;arcSize=40;fontColor=#000000;fillColor=#ffffc0;strokeColor=#ff0000;" parent="1" vertex="1">
          <mxGeometry x="360" y="380" width="120" height="40" as="geometry" />
        </mxCell>
        <mxCell id="J9yXBVlpHkPEB4QJOyiD-42" value="" style="edgeStyle=orthogonalEdgeStyle;rounded=0;orthogonalLoop=1;jettySize=auto;html=1;" parent="1" source="J9yXBVlpHkPEB4QJOyiD-23" target="J9yXBVlpHkPEB4QJOyiD-27" edge="1">
          <mxGeometry relative="1" as="geometry" />
        </mxCell>
        <mxCell id="J9yXBVlpHkPEB4QJOyiD-23" value="Invoice Due Date" style="rounded=1;whiteSpace=wrap;html=1;arcSize=40;fontColor=#000000;fillColor=#ffffc0;strokeColor=#ff0000;" parent="1" vertex="1">
          <mxGeometry x="360" y="470" width="120" height="40" as="geometry" />
        </mxCell>
        <mxCell id="J9yXBVlpHkPEB4QJOyiD-25" value="auto &lt;b&gt;and &lt;/b&gt;user define" style="shape=note2;boundedLbl=1;whiteSpace=wrap;html=1;size=25;verticalAlign=top;align=center;" parent="1" vertex="1">
          <mxGeometry x="555" y="460" width="120" height="60" as="geometry" />
        </mxCell>
        <mxCell id="J9yXBVlpHkPEB4QJOyiD-26" value="" style="endArrow=none;dashed=1;html=1;dashPattern=1 3;strokeWidth=2;rounded=0;exitX=0;exitY=0.5;exitDx=0;exitDy=0;exitPerimeter=0;" parent="1" source="J9yXBVlpHkPEB4QJOyiD-25" edge="1">
          <mxGeometry width="50" height="50" relative="1" as="geometry">
            <mxPoint x="405" y="520" as="sourcePoint" />
            <mxPoint x="485" y="490" as="targetPoint" />
          </mxGeometry>
        </mxCell>
        <mxCell id="J9yXBVlpHkPEB4QJOyiD-27" value="&lt;font style=&quot;font-size: 11px;&quot;&gt;Auto fill for Forwarding Order details&lt;/font&gt;" style="rounded=1;whiteSpace=wrap;html=1;arcSize=40;fontColor=#000000;fillColor=#ffffc0;strokeColor=#ff0000;" parent="1" vertex="1">
          <mxGeometry x="360" y="560" width="120" height="40" as="geometry" />
        </mxCell>
        <mxCell id="J9yXBVlpHkPEB4QJOyiD-28" style="edgeStyle=none;rounded=0;html=1;labelBackgroundColor=none;startArrow=none;startFill=0;startSize=5;endArrow=classicThin;endFill=1;endSize=5;jettySize=auto;orthogonalLoop=1;strokeWidth=1;fontFamily=Verdana;fontSize=12" parent="1" target="J9yXBVlpHkPEB4QJOyiD-30" edge="1">
          <mxGeometry relative="1" as="geometry">
            <mxPoint x="431" y="600" as="sourcePoint" />
          </mxGeometry>
        </mxCell>
        <mxCell id="J9yXBVlpHkPEB4QJOyiD-29" style="edgeStyle=none;rounded=0;html=1;labelBackgroundColor=none;startArrow=none;startFill=0;startSize=5;endArrow=classicThin;endFill=1;endSize=5;jettySize=auto;orthogonalLoop=1;strokeWidth=1;fontFamily=Verdana;fontSize=12;entryX=0.5;entryY=0;entryDx=0;entryDy=0;entryPerimeter=0;" parent="1" source="J9yXBVlpHkPEB4QJOyiD-30" target="J9yXBVlpHkPEB4QJOyiD-34" edge="1">
          <mxGeometry relative="1" as="geometry">
            <mxPoint x="430" y="720" as="targetPoint" />
          </mxGeometry>
        </mxCell>
        <mxCell id="J9yXBVlpHkPEB4QJOyiD-30" value="Forwarding Order" style="rounded=0;whiteSpace=wrap;html=1;shadow=0;comic=0;labelBackgroundColor=none;strokeWidth=1;fontFamily=Verdana;fontSize=12;align=center;arcSize=50;" parent="1" vertex="1">
          <mxGeometry x="430" y="630" width="125" height="40" as="geometry" />
        </mxCell>
        <mxCell id="J9yXBVlpHkPEB4QJOyiD-31" style="edgeStyle=none;rounded=0;html=1;dashed=1;labelBackgroundColor=none;startArrow=none;startFill=0;startSize=5;endArrow=oval;endFill=0;endSize=5;jettySize=auto;orthogonalLoop=1;strokeWidth=1;fontFamily=Verdana;fontSize=12" parent="1" source="J9yXBVlpHkPEB4QJOyiD-33" edge="1">
          <mxGeometry relative="1" as="geometry">
            <mxPoint x="407" y="600" as="targetPoint" />
          </mxGeometry>
        </mxCell>
        <mxCell id="J9yXBVlpHkPEB4QJOyiD-32" style="edgeStyle=none;rounded=0;html=1;dashed=1;labelBackgroundColor=none;startArrow=none;startFill=0;startSize=5;endArrow=oval;endFill=0;endSize=5;jettySize=auto;orthogonalLoop=1;strokeWidth=1;fontFamily=Verdana;fontSize=12" parent="1" source="J9yXBVlpHkPEB4QJOyiD-33" target="J9yXBVlpHkPEB4QJOyiD-30" edge="1">
          <mxGeometry relative="1" as="geometry" />
        </mxCell>
        <mxCell id="J9yXBVlpHkPEB4QJOyiD-33" value="&lt;font style=&quot;font-size: 11px;&quot;&gt;Import from&amp;nbsp;Forwarding Order according to its No from DB&lt;/font&gt;" style="shape=note;whiteSpace=wrap;html=1;rounded=0;shadow=0;comic=0;labelBackgroundColor=none;strokeWidth=1;fontFamily=Verdana;fontSize=12;align=center;size=20;" parent="1" vertex="1">
          <mxGeometry x="225" y="630" width="180" height="60" as="geometry" />
        </mxCell>
        <mxCell id="J9yXBVlpHkPEB4QJOyiD-44" value="" style="edgeStyle=orthogonalEdgeStyle;rounded=0;orthogonalLoop=1;jettySize=auto;html=1;" parent="1" source="J9yXBVlpHkPEB4QJOyiD-34" target="J9yXBVlpHkPEB4QJOyiD-43" edge="1">
          <mxGeometry relative="1" as="geometry" />
        </mxCell>
        <mxCell id="J9yXBVlpHkPEB4QJOyiD-34" value="Save" style="rounded=1;whiteSpace=wrap;html=1;arcSize=40;fontColor=#000000;fillColor=#ffffc0;strokeColor=#ff0000;" parent="1" vertex="1">
          <mxGeometry x="370" y="720" width="120" height="40" as="geometry" />
        </mxCell>
        <mxCell id="J9yXBVlpHkPEB4QJOyiD-43" value="" style="ellipse;html=1;shape=endState;fillColor=strokeColor;" parent="1" vertex="1">
          <mxGeometry x="415" y="800" width="30" height="30" as="geometry" />
        </mxCell>
      </root>
    </mxGraphModel>
  </diagram>
</mxfile>
